<?xml version="1.0" standalone="no"?>
<!DOCTYPE svg PUBLIC "-//W3C//DTD SVG 20010904//EN"
 "http://www.w3.org/TR/2001/REC-SVG-20010904/DTD/svg10.dtd">
<svg version="1.0" xmlns="http://www.w3.org/2000/svg"
 width="1024.000000pt" height="1024.000000pt" viewBox="0 0 1024.000000 1024.000000"
 preserveAspectRatio="xMidYMid meet">
<metadata>
Created by potrace 1.15, written by Peter Selinger 2001-2017
</metadata>
<g transform="translate(0.000000,1024.000000) scale(0.100000,-0.100000)"
fill="#ffffff" stroke="none">
<path d="M0 5680 c0 -3648 3 -4560 13 -4560 6 0 264 -252 572 -560 l560 -560
4547 0 4548 0 0 4499 0 4499 -747 621 -748 620 -4372 1 -4373 0 0 -4560z
m9090 3177 l0 -542 -2007 -870 c-1104 -479 -2016 -878 -2027 -889 -15 -15 -16
-20 -5 -27 8 -5 909 -9 2027 -9 l2012 0 0 -655 0 -655 -3925 0 -3925 0 0 523
0 522 1573 645 c864 354 1619 665 1677 691 58 25 191 79 295 119 233 89 222
85 266 104 88 38 427 169 454 175 20 5 30 13 30 25 0 18 -78 18 -2147 17
l-2148 -2 0 685 0 686 3925 0 3925 0 0 -543z m-4454 -4187 c130 -23 363 -131
443 -206 72 -66 220 -309 236 -385 3 -19 22 -105 41 -191 l35 -158 -4 -1152
c-3 -1046 -5 -1159 -20 -1223 -19 -75 -43 -157 -57 -190 -4 -11 -16 -40 -25
-65 -28 -76 -85 -169 -129 -213 -184 -182 -238 -217 -425 -274 -80 -24 -103
-27 -314 -31 -322 -6 -441 16 -619 110 -95 51 -182 127 -242 212 -52 73 -96
158 -96 185 0 10 -7 21 -14 24 -8 3 -18 23 -21 44 -3 21 -12 52 -21 68 -22 46
-52 197 -64 325 -8 79 -10 448 -7 1170 3 919 6 1064 20 1125 8 39 22 99 29
135 8 36 22 80 31 99 9 19 17 39 17 44 0 19 71 157 81 157 5 0 9 9 9 21 0 12
8 23 20 26 11 3 20 11 20 17 0 7 22 35 48 62 27 28 51 58 55 67 10 25 133 102
223 138 139 55 222 68 470 68 121 1 247 -4 280 -9z m-1668 -114 c3 -84 1 -93
-42 -200 -24 -61 -157 -402 -294 -757 -138 -356 -262 -669 -276 -695 -14 -27
-26 -57 -26 -67 0 -10 -108 -296 -239 -635 -243 -626 -262 -675 -415 -1069
-48 -123 -84 -227 -81 -233 4 -7 244 -10 691 -10 l684 0 0 -135 0 -135 -880 0
-880 0 0 133 0 134 667 1709 c366 940 667 1720 667 1734 1 18 -4 25 -19 26
-11 1 -287 2 -612 3 l-593 1 0 145 0 145 823 -2 822 -3 3 -89z m3442 -1921 l0
-2015 -180 0 -180 0 0 2015 0 2015 180 0 180 0 0 -2015z m1874 1990 c134 -24
263 -69 338 -119 107 -72 238 -178 238 -193 0 -7 9 -24 20 -36 82 -89 162
-291 181 -457 5 -47 13 -116 19 -155 13 -97 13 -1890 0 -2030 -22 -235 -67
-405 -145 -552 -127 -240 -302 -369 -590 -435 -84 -20 -126 -22 -657 -25
l-568 -4 0 2010 0 2011 539 0 c435 0 555 -3 625 -15z"/>
<path d="M4190 4371 c-54 -7 -96 -23 -212 -79 -51 -24 -63 -37 -116 -117 -63
-96 -101 -198 -124 -335 -10 -58 -13 -344 -13 -1240 l0 -1165 34 -105 c40
-127 80 -210 128 -268 36 -44 134 -122 153 -122 5 0 10 -4 10 -10 0 -5 7 -10
15 -10 8 0 55 -13 105 -30 78 -26 105 -30 198 -30 141 0 212 9 212 26 0 8 9
14 19 14 17 0 99 37 111 51 3 3 21 15 40 26 46 28 140 127 140 147 0 9 9 24
20 33 11 10 20 27 20 39 0 13 11 36 25 53 50 58 50 69 50 1351 l0 1195 -24
100 c-28 118 -66 215 -109 279 -18 26 -32 50 -32 54 0 16 -160 101 -233 124
-69 21 -316 33 -417 19z"/>
<path d="M7494 4328 c3 -13 6 -787 6 -1721 l0 -1699 333 4 c308 4 337 6 407
27 225 67 338 180 400 401 53 188 53 199 58 1180 4 1010 -2 1203 -43 1367 -27
109 -87 243 -125 282 -43 43 -130 100 -188 121 -132 50 -169 54 -521 57 l-333
4 6 -23z"/>
</g>
</svg>
